<?xml version="1.0" standalone="no"?>
<!DOCTYPE svg PUBLIC "-//W3C//DTD SVG 20010904//EN"
 "http://www.w3.org/TR/2001/REC-SVG-20010904/DTD/svg10.dtd">
<svg version="1.0" xmlns="http://www.w3.org/2000/svg"
 width="400.000000pt" height="400.000000pt" viewBox="0 0 400.000000 400.000000"
 preserveAspectRatio="xMidYMid meet">
<metadata>
Created by potrace 1.14, written by Peter Selinger 2001-2017
</metadata>
<g transform="translate(0.000000,400.000000) scale(0.100000,-0.100000)"
fill="#000000" stroke="none">
<path d="M300 2095 l0 -355 235 0 235 0 0 60 0 60 -170 0 -170 0 0 90 0 89
143 3 142 3 3 58 3 57 -146 0 -145 0 0 80 0 80 165 0 165 0 0 65 0 65 -230 0
-230 0 0 -355z"/>
<path d="M1520 2095 l0 -355 240 0 240 0 0 60 0 60 -170 0 -170 0 -2 293 -3
292 -67 3 -68 3 0 -356z"/>
<path d="M2290 2448 c-1 -2 -58 -160 -129 -353 l-128 -350 65 -3 c45 -2 68 1
73 10 5 7 20 48 35 91 l26 78 116 -3 116 -3 31 -87 30 -88 68 0 c37 0 67 3 67
6 0 4 -57 163 -127 355 l-126 349 -59 0 c-32 0 -58 -1 -58 -2z m108 -305 l41
-123 -90 0 c-69 0 -90 3 -87 13 14 57 84 245 89 239 4 -4 25 -62 47 -129z"/>
<path d="M2730 2095 l0 -356 203 3 204 3 48 30 c26 17 56 46 66 65 41 76 12
198 -57 241 l-35 22 30 31 c38 39 51 75 51 134 -1 61 -29 123 -71 153 -33 23
-41 24 -236 27 l-203 3 0 -356z m361 206 c19 -23 25 -74 13 -106 -12 -31 -59
-45 -154 -45 l-90 0 0 91 0 91 106 -4 c97 -3 107 -5 125 -27z m20 -287 c35
-37 33 -98 -4 -130 -26 -22 -37 -24 -138 -24 l-109 0 0 90 0 90 113 0 c109 0
115 -1 138 -26z"/>
<path d="M3330 2095 l0 -355 235 0 235 0 0 60 0 60 -165 0 -165 0 0 90 0 90
140 0 140 0 0 60 0 60 -140 0 -140 0 0 80 0 80 163 2 162 3 0 60 0 60 -232 3
-233 2 0 -355z"/>
<path d="M850 2140 c0 -165 2 -300 4 -300 2 0 27 35 55 78 l51 78 0 222 0 222
-55 0 -55 0 0 -300z"/>
<path d="M1080 2095 c-126 -190 -230 -347 -230 -350 0 -3 30 -5 68 -5 l67 1
233 349 232 350 -70 0 -70 0 -230 -345z"/>
<path d="M1391 2272 l-51 -78 0 -227 0 -227 55 0 55 0 0 305 c0 168 -2 305 -4
305 -2 0 -27 -35 -55 -78z"/>
</g>
</svg>
